#Comment line ignore any data following # character 
#Hierarchical Translation and Rotation (.htr) file 
[Header]	
#Header keywords are followed by a single value 
FileType HTR		#Single word string
DataType HTRS		#Translation followed by rotation and scale data
FileVersion 1		#integer
NumSegments 25		#integer
NumFrames 6		#integer
DataFrameRate 30		#integer, data frame rate in this file
EulerRotationOrder ZYX
CalibrationUnits mm
RotationUnits Degrees
GlobalAxisofGravity Y
BoneLengthAxis Y
ScaleFactor 1.00
[SegmentNames&Hierarchy]
#CHILD	PARENT
BN_Tick_Root GLOBAL
BN_Torso BN_Tick_Root
BN_L_Leg_Front01 BN_Torso
BN_L_Leg_Rear01 BN_Torso
BN_MetalTop BN_Torso
BN_Neck BN_Torso
BN_R_Leg_Front01 BN_Torso
BN_R_Leg_Rear01 BN_Torso
BN_Sack BN_Torso
BN_L_Leg_Front02 BN_L_Leg_Front01
BN_L_Leg_Front03 BN_L_Leg_Front02
BN_L_Leg_Rear02 BN_L_Leg_Rear01
BN_L_Leg_Rear03 BN_L_Leg_Rear02
BN_Head BN_Neck
BN_Needle BN_Head
BN_R_Leg_Front02 BN_R_Leg_Front01
BN_R_Leg_Front03 BN_R_Leg_Front02
BN_R_Leg_Rear02 BN_R_Leg_Rear01
BN_R_Leg_Rear03 BN_R_Leg_Rear02
BN_SackDef01 BN_Sack
BN_SackDef02 BN_Sack
BN_SackDef03 BN_Sack
BN_SackDef04 BN_Sack
BN_SackDef05 BN_Sack
BN_SackDef06 BN_Sack
[BasePosition]
#SegmentName Tx, Ty, Tz, Rx, Ry, Rz, BoneLength
BN_Tick_Root 0.000000 0.000000 0.000000 -90.000000 0.000000 0.000000 10.000000 
BN_Torso 0.000000 0.000000 0.000000 0.000000 0.000000 0.000000 10.000000 
BN_L_Leg_Front01 0.000000 0.000000 0.000000 0.000000 0.000000 0.000000 10.000000 
BN_L_Leg_Rear01 0.000000 0.000000 0.000000 0.000000 0.000000 0.000000 10.000000 
BN_MetalTop 0.000000 0.000000 0.000000 0.000000 0.000000 0.000000 10.000000 
BN_Neck 0.000000 0.000000 0.000000 0.000000 0.000000 0.000000 10.000000 
BN_R_Leg_Front01 0.000000 0.000000 0.000000 0.000000 0.000000 0.000000 10.000000 
BN_R_Leg_Rear01 0.000000 0.000000 0.000000 0.000000 0.000000 0.000000 10.000000 
BN_Sack 0.000000 0.000000 0.000000 0.000000 0.000000 0.000000 10.000000 
BN_L_Leg_Front02 0.000000 0.000000 0.000000 0.000000 0.000000 0.000000 10.000000 
BN_L_Leg_Front03 0.000000 0.000000 0.000000 0.000000 0.000000 0.000000 10.000000 
BN_L_Leg_Rear02 0.000000 0.000000 0.000000 0.000000 0.000000 0.000000 10.000000 
BN_L_Leg_Rear03 0.000000 0.000000 0.000000 0.000000 0.000000 0.000000 10.000000 
BN_Head 0.000000 0.000000 0.000000 0.000000 0.000000 0.000000 10.000000 
BN_Needle 0.000000 0.000000 0.000000 0.000000 0.000000 0.000000 10.000000 
BN_R_Leg_Front02 0.000000 0.000000 0.000000 0.000000 0.000000 0.000000 10.000000 
BN_R_Leg_Front03 0.000000 0.000000 0.000000 0.000000 0.000000 0.000000 10.000000 
BN_R_Leg_Rear02 0.000000 0.000000 0.000000 0.000000 0.000000 0.000000 10.000000 
BN_R_Leg_Rear03 0.000000 0.000000 0.000000 0.000000 0.000000 0.000000 10.000000 
BN_SackDef01 0.000000 0.000000 0.000000 0.000000 0.000000 0.000000 10.000000 
BN_SackDef02 0.000000 0.000000 0.000000 0.000000 0.000000 0.000000 10.000000 
BN_SackDef03 0.000000 0.000000 0.000000 0.000000 0.000000 0.000000 10.000000 
BN_SackDef04 0.000000 0.000000 0.000000 0.000000 0.000000 0.000000 10.000000 
BN_SackDef05 0.000000 0.000000 0.000000 0.000000 0.000000 0.000000 10.000000 
BN_SackDef06 0.000000 0.000000 0.000000 0.000000 0.000000 0.000000 10.000000 
#Beginning of Data. Separated by tabs
#Fr	Tx	Ty	Tz	Rx	Ry	Rz	SF
[BN_Tick_Root]
129 0.000000 -277.735382 0.000000 0.000000 0.000000 -0.000020 277.735382
130 0.000000 -277.735382 0.000000 0.000000 0.000000 -0.000020 277.735382
131 0.000000 -277.735382 0.000000 0.000000 0.000000 -0.000020 277.735382
132 0.000000 -277.735382 0.000000 0.000000 0.000000 -0.000020 277.735382
133 0.000000 -277.735382 0.000000 0.000000 0.000000 -0.000020 277.735382
134 0.000000 -277.735382 0.000000 0.000000 0.000000 -0.000020 277.735382
[BN_Torso]
129 22.940039 58.483574 232.061920 -20.762960 -2.865124 5.839801 240.414871
130 21.107014 54.496655 226.693832 -24.024048 -2.909404 5.756464 234.105713
131 19.273989 50.509731 221.325775 -26.149549 -2.954742 5.677168 227.832870
132 17.440992 46.522869 215.957764 -26.912161 -2.997426 5.593818 221.599457
133 16.566998 42.758553 209.468384 -26.840555 -3.037930 5.521910 214.428925
134 15.693192 38.994282 202.978760 -26.768734 -3.078344 5.449951 207.285324
[BN_L_Leg_Front01]
129 -68.477791 10.734189 -26.804373 -69.296478 40.066982 133.955688 74.316254
130 -68.477791 10.734189 -26.804373 -71.584541 36.332401 131.659653 74.316254
131 -68.477791 10.734189 -26.804373 -72.765182 33.426044 130.249863 74.316254
132 -68.477791 10.734189 -26.804373 -72.874748 31.616587 129.574921 74.316254
133 -68.477791 10.734189 -26.804373 -72.461739 30.246632 129.382126 74.316254
134 -68.477791 10.734189 -26.804373 -72.122421 28.931076 129.357056 74.316254
[BN_L_Leg_Rear01]
129 -72.133743 -73.994843 -18.268616 24.810242 60.711975 -171.038437 104.939293
130 -72.133743 -73.994843 -18.268616 17.737455 61.214409 -177.196838 104.939293
131 -72.133743 -73.994843 -18.268616 13.142571 61.282536 178.796585 104.939293
132 -72.133743 -73.994843 -18.268616 11.669210 61.161606 177.497711 104.939293
133 -72.133743 -73.994843 -18.268616 12.370965 60.839863 178.076279 104.939293
134 -72.133743 -73.994843 -18.268616 13.451667 60.407349 178.978714 104.939293
[BN_MetalTop]
129 0.000008 13.737477 26.403606 98.493195 -25.389767 -107.882240 29.763546
130 0.000008 13.737477 26.403606 97.885956 -24.625389 -107.014931 29.763546
131 0.000008 13.737477 26.403606 97.374626 -24.130672 -106.148781 29.763546
132 0.000008 13.737477 26.403606 96.974770 -24.006037 -105.295189 29.763546
133 0.000008 13.737477 26.403606 96.716316 -24.688963 -104.309471 29.763546
134 0.000008 13.737477 26.403606 96.536224 -26.262829 -103.131371 29.763546
[BN_Neck]
129 0.000014 95.233284 10.002091 -89.999672 -65.297531 89.999657 95.757088
130 0.000014 95.233284 10.002091 -89.999672 -65.297531 89.999657 95.757088
131 0.000014 95.233284 10.002091 -89.999672 -65.297531 89.999657 95.757088
132 0.000014 95.233284 10.002091 -89.999672 -65.297531 89.999657 95.757088
133 0.000014 95.233284 10.002091 -89.999672 -65.297531 89.999657 95.757088
134 0.000014 95.233284 10.002091 -89.999672 -65.297531 89.999657 95.757088
[BN_R_Leg_Front01]
129 68.477768 10.734107 -26.804314 77.387077 52.453388 52.666313 74.316193
130 68.477768 10.734107 -26.804314 79.689041 48.105904 54.794231 74.316193
131 68.477768 10.734107 -26.804314 80.819763 44.751728 55.797981 74.316193
132 68.477768 10.734107 -26.804314 80.893410 42.621151 55.903297 74.316193
133 68.477768 10.734107 -26.804314 80.364326 41.116867 55.568768 74.316193
134 68.477768 10.734107 -26.804314 79.858223 39.610527 55.259586 74.316193
[BN_R_Leg_Rear01]
129 72.133751 -73.994873 -18.268644 27.286455 80.075783 27.563570 104.939331
130 72.133751 -73.994873 -18.268644 41.075699 77.696045 42.433243 104.939331
131 72.133751 -73.994873 -18.268644 46.379246 75.700500 48.899281 104.939331
132 72.133751 -73.994873 -18.268644 46.614044 74.671982 50.453667 104.939331
133 72.133751 -73.994873 -18.268644 44.379620 74.362740 49.492424 104.939331
134 72.133751 -73.994873 -18.268644 42.088531 74.230843 48.174252 104.939331
[BN_Sack]
129 -0.000000 -78.024918 33.657791 93.396385 5.579215 -112.609634 84.974907
130 -0.000000 -78.024918 33.657791 93.488533 5.650903 -111.735855 84.974907
131 -0.000000 -78.024918 33.657791 93.581772 5.721177 -110.861877 84.974907
132 -0.000000 -78.024918 33.657791 93.676079 5.790008 -109.987839 84.974907
133 -0.000000 -78.024918 33.657791 93.779312 5.353929 -109.165833 84.974907
134 -0.000000 -78.024918 33.657791 93.894279 4.173287 -108.337708 84.974907
[BN_L_Leg_Front02]
129 142.805023 -0.000015 -0.000104 0.134615 0.466914 -108.999886 142.805023
130 142.805023 -0.000015 -0.000104 0.130683 0.476226 -109.901573 142.805023
131 142.805023 -0.000015 -0.000104 0.126605 0.485475 -110.803314 142.805023
132 142.805023 -0.000015 -0.000104 0.122382 0.494659 -111.704956 142.805023
133 142.805023 -0.000015 -0.000104 0.119967 0.508964 -112.891823 142.805023
134 142.805023 -0.000015 -0.000104 0.117257 0.523217 -114.078720 142.805023
[BN_L_Leg_Front03]
129 124.143021 -0.000045 0.000007 0.352570 -0.397263 117.839333 124.143021
130 124.143021 -0.000045 0.000007 0.352939 -0.393635 118.721779 124.143021
131 124.143021 -0.000045 0.000007 0.353363 -0.390012 119.604233 124.143021
132 124.143021 -0.000045 0.000007 0.353843 -0.386398 120.486549 124.143021
133 124.143021 -0.000045 0.000007 0.354198 -0.381856 121.585770 124.143021
134 124.143021 -0.000045 0.000007 0.354640 -0.377322 122.685036 124.143021
[BN_L_Leg_Rear02]
129 139.939041 0.000075 -0.000022 0.122576 -0.201263 81.466431 139.939041
130 139.939041 0.000075 -0.000022 0.120241 -0.202667 82.791428 139.939041
131 139.939041 0.000075 -0.000022 0.117646 -0.211364 84.443565 139.939041
132 139.939041 0.000075 -0.000022 0.113970 -0.220473 86.537949 139.939041
133 139.939041 0.000075 -0.000022 0.105478 -0.226522 89.133217 139.939041
134 139.939041 0.000075 -0.000022 0.093657 -0.228614 91.564423 139.939041
[BN_L_Leg_Rear03]
129 142.839615 0.000179 -0.000060 0.000142 -0.002343 -96.948494 142.839615
130 142.839615 0.000179 -0.000060 0.000178 -0.002340 -98.700455 142.839615
131 142.839615 0.000179 -0.000060 0.000222 -0.002337 -100.847404 142.839615
132 142.839615 0.000179 -0.000060 0.000276 -0.002331 -103.516747 142.839615
133 142.839615 0.000179 -0.000060 0.000342 -0.002322 -106.736916 142.839615
134 142.839615 0.000179 -0.000060 0.000401 -0.002313 -109.679718 142.839615
[BN_Head]
129 57.062447 -0.000030 0.000000 5.041496 19.090073 2.994299 57.062447
130 57.062447 -0.000030 0.000000 5.139424 19.055885 -0.233883 57.062447
131 57.062447 -0.000030 0.000000 5.230229 19.026083 -2.333919 57.062447
132 57.062447 -0.000030 0.000000 5.323699 18.995699 -3.073213 57.062447
133 57.062447 -0.000030 0.000000 5.402283 18.968452 -2.945983 57.062447
134 57.062447 -0.000030 0.000000 5.480784 18.941038 -2.818641 57.062447
[BN_Needle]
129 33.574184 60.391396 -0.000007 0.000003 0.000030 87.896805 69.096649
130 33.574184 60.391396 -0.000005 0.000003 0.000030 87.896805 69.096649
131 33.574188 60.391392 -0.000004 0.000003 0.000030 87.896805 69.096649
132 33.574188 60.391392 -0.000002 0.000003 0.000030 87.896805 69.096649
133 33.574188 60.391392 -0.000001 0.000003 0.000030 87.896805 69.096649
134 33.574192 60.391392 0.000000 0.000003 0.000030 87.896805 69.096649
[BN_R_Leg_Front02]
129 142.804947 -0.000060 0.000060 -0.058434 0.634240 124.902908 142.804947
130 142.804947 -0.000060 0.000060 -0.057622 0.642145 125.268250 142.804947
131 142.804947 -0.000060 0.000060 -0.056064 0.642286 125.546394 142.804947
132 142.804947 -0.000060 0.000060 -0.054504 0.642419 125.824493 142.804947
133 142.804947 -0.000060 0.000060 -0.049262 0.653898 126.761223 142.804947
134 142.804947 -0.000060 0.000060 -0.041654 0.665483 128.074066 142.804947
[BN_R_Leg_Front03]
129 124.143005 -0.000060 -0.000156 -0.355183 -0.334581 -131.778320 124.143005
130 124.143005 -0.000060 -0.000156 -0.355083 -0.333721 -132.027344 124.143005
131 124.143005 -0.000060 -0.000156 -0.354986 -0.332860 -132.276352 124.143005
132 124.143005 -0.000060 -0.000156 -0.354894 -0.331999 -132.525360 124.143005
133 124.143005 -0.000060 -0.000156 -0.355384 -0.327714 -133.242874 124.143005
134 124.143005 -0.000060 -0.000156 -0.353281 -0.319704 -134.221695 124.143005
[BN_R_Leg_Rear02]
129 139.939011 -0.000149 0.000015 -0.042461 -0.253040 -107.487228 139.939011
130 139.939011 -0.000149 0.000015 -0.034794 -0.245334 -108.337395 139.939011
131 139.939011 -0.000149 0.000015 -0.033460 -0.256669 -109.728165 139.939011
132 139.939011 -0.000149 0.000015 -0.028758 -0.257240 -111.825249 139.939011
133 139.939011 -0.000149 0.000015 -0.014855 -0.256421 -114.973160 139.939011
134 139.939011 -0.000149 0.000015 -0.006472 -0.245723 -118.349464 139.939011
[BN_R_Leg_Rear03]
129 142.839417 0.000075 0.000119 0.002227 -0.000740 126.757019 142.839417
130 142.839417 0.000075 0.000119 0.002222 -0.000756 127.557701 142.839417
131 142.839417 0.000075 0.000119 0.002214 -0.000781 128.844131 142.839417
132 142.839417 0.000075 0.000119 0.002200 -0.000817 130.739182 142.839417
133 142.839417 0.000075 0.000119 0.002181 -0.000869 133.471344 142.839417
134 142.839417 0.000075 0.000119 0.002159 -0.000921 136.203690 142.839417
[BN_SackDef01]
129 597.936646 -15.746951 103.387070 -128.408218 -44.374973 -11.740845 607.013245
130 597.936646 -15.746947 103.387077 -128.408218 -44.374973 -11.740845 607.013245
131 597.936646 -15.746945 103.387077 -128.408218 -44.374973 -11.740845 607.013245
132 597.936646 -15.746942 103.387077 -128.408218 -44.374973 -11.740845 607.013245
133 597.936646 -15.746938 103.387077 -128.408218 -44.374973 -11.740845 607.013245
134 597.936646 -15.746936 103.387077 -128.408218 -44.374973 -11.740845 607.013245
[BN_SackDef02]
129 233.072189 -211.160019 118.223618 32.077126 -27.375721 -88.781525 335.988129
130 233.072189 -211.160019 118.223618 32.077126 -27.375721 -88.781525 335.988129
131 233.072189 -211.160019 118.223618 32.077126 -27.375721 -88.781525 335.988129
132 233.072189 -211.160019 118.223618 32.077126 -27.375721 -88.781525 335.988129
133 233.072189 -211.160019 118.223625 32.077126 -27.375721 -88.781525 335.988129
134 233.072189 -211.160019 118.223625 32.077126 -27.375721 -88.781525 335.988129
[BN_SackDef03]
129 597.936523 -15.746964 -103.387154 18.144459 44.375008 -11.740894 607.013123
130 597.936523 -15.746963 -103.387154 18.144459 44.375008 -11.740894 607.013123
131 597.936523 -15.746963 -103.387154 18.144459 44.375008 -11.740894 607.013123
132 597.936523 -15.746961 -103.387154 18.144459 44.375008 -11.740894 607.013123
133 597.936523 -15.746959 -103.387154 18.144459 44.375008 -11.740894 607.013123
134 597.936523 -15.746957 -103.387154 18.144459 44.375008 -11.740894 607.013123
[BN_SackDef04]
129 233.072037 -211.159988 -118.223358 146.059982 27.375723 -88.781555 335.987915
130 233.072037 -211.159988 -118.223358 146.059982 27.375723 -88.781555 335.987915
131 233.072037 -211.159988 -118.223358 146.059982 27.375723 -88.781555 335.987915
132 233.072037 -211.159988 -118.223358 146.059982 27.375723 -88.781555 335.987915
133 233.072037 -211.159988 -118.223358 146.059982 27.375723 -88.781555 335.987915
134 233.072037 -211.159988 -118.223358 146.059982 27.375723 -88.781555 335.987915
[BN_SackDef05]
129 289.340973 263.516907 -164.100388 0.155741 51.314110 90.605110 424.368103
130 289.340973 263.516907 -164.100388 0.155741 51.314110 90.605110 424.368103
131 289.340973 263.516907 -164.100388 0.155741 51.314110 90.605110 424.368103
132 289.340973 263.516907 -164.100388 0.155741 51.314110 90.605110 424.368103
133 289.340973 263.516907 -164.100372 0.155741 51.314110 90.605110 424.368103
134 289.340973 263.516907 -164.100372 0.155741 51.314110 90.605110 424.368103
[BN_SackDef06]
129 289.341125 263.516998 164.100037 152.058487 -51.314072 90.605019 424.368164
130 289.341125 263.516998 164.100037 152.058487 -51.314072 90.605019 424.368164
131 289.341125 263.516998 164.100037 152.058487 -51.314072 90.605019 424.368164
132 289.341125 263.516998 164.100037 152.058487 -51.314072 90.605019 424.368164
133 289.341125 263.517029 164.100052 152.058487 -51.314072 90.605019 424.368164
134 289.341125 263.517029 164.100052 152.058487 -51.314072 90.605019 424.368164
